<?xml version="1.0" encoding="UTF-8" standalone="no"?>
<!DOCTYPE svg PUBLIC "-//W3C//DTD SVG 1.1//EN"
"http://www.w3.org/Graphics/SVG/1.1/DTD/svg11.dtd">


<!-- Page 1 -->
<svg x="0" y="0" width="909" height="1286" viewBox="0 0 909 1286" version="1.1" xmlns="http://www.w3.org/2000/svg" xmlns:xlink="http://www.w3.org/1999/xlink"
style="display: block;margin-left: auto;margin-right: auto;">
<defs>
<clipPath id="c_1"><path d="M0,0H909V1286H0Z"/></clipPath>
<style type="text/css"><![CDATA[
text { white-space: pre; }
path, image { pointer-events: none; }

.s1{
font-size: 16.80px;
font-family: Carlito_5;
fill: #000;
}

.g0{
fill: none;
stroke: #000;
stroke-width: 1.145;
stroke-linejoin: round;
}

]]></style>

</defs>
<path d="M0,0
L0,1286
L909,1286
L909,0 Z " 
fill="#FFFFFF" stroke="none"/>
<g clip-path="url(#c_1)">
<path d="M223.6,174.1H666.5m-442.3,-.6V312.1M371.4,173.5V312.1M665.9,173.5V312.1m0,-138.6V312.1M223.6,197H666.5m-368.7,-.6V312.1M445.1,196.4V312.1M518.7,196.4V312.1M592.3,196.4V312.1M223.6,219.9H666.5M223.6,242.8H666.5M223.6,265.7H666.5M223.6,288.6H666.5m-442.9,23H666.5m-442.9,0H666.5" class="g0"/>
<text x="267.7" y="189.8" dx="0,0,0,0,-.1,0,0,0" class="s1">Entradas </text>
<text x="495.2" y="189.8" dx="0,.1,0,0,0,0,0" class="s1">Salidas </text>
<text x="256.4" y="212.7" class="s1">B </text>
<text x="329.7" y="212.7" class="s1">A </text>
<text x="400.1" y="212.7" dx="0,.1" class="s1">S0 </text>
<text x="473.8" y="212.7" dx="0,.1" class="s1">S1 </text>
<text x="547.4" y="212.7" dx="0,.1" class="s1">S2 </text>
<text x="621" y="212.7" dx="0,.1" class="s1">S3 </text>
<text x="256.7" y="235.6" class="s1">0 </text>
<text x="330.3" y="235.6" class="s1">0 </text>
<text x="403.9" y="235.6" class="s1">1 </text>
<text x="477.6" y="235.6" class="s1">0 </text>
<text x="551.2" y="235.6" class="s1">0 </text>
<text x="624.9" y="235.6" class="s1">0 </text>
<text x="256.7" y="258.5" class="s1">0 </text>
<text x="330.3" y="258.5" class="s1">1 </text>
<text x="403.9" y="258.5" class="s1">0 </text>
<text x="477.6" y="258.5" class="s1">1 </text>
<text x="551.2" y="258.5" class="s1">0 </text>
<text x="624.9" y="258.5" class="s1">0 </text>
<text x="256.7" y="281.4" class="s1">1 </text>
<text x="330.3" y="281.4" class="s1">0 </text>
<text x="403.9" y="281.4" class="s1">0 </text>
<text x="477.6" y="281.4" class="s1">0 </text>
<text x="551.2" y="281.4" class="s1">1 </text>
<text x="624.9" y="281.4" class="s1">0 </text>
<text x="256.7" y="304.3" class="s1">1 </text>
<text x="330.3" y="304.3" class="s1">1 </text>
<text x="403.9" y="304.3" class="s1">0 </text>
<text x="477.6" y="304.3" class="s1">0 </text>
<text x="551.2" y="304.3" class="s1">0 </text>
<text x="624.9" y="304.3" class="s1">1 </text>

</g>

<!-- Any embedded fonts defined here -->
<style type="text/css" ><![CDATA[

@font-face {
	font-family: Carlito_5;
	src: url("fonts/Carlito_5.woff") format("woff");
}

]]></style>

</svg>
